#!OML:ASF H:\Dans Jumps\Project 1\Capture day 1\Session 1\subject.ASF
:FULLY-SPECIFIED
:DEGREES
173
root 0.536117 17.5423 -13.8334 5.46023 -1.32002 -2.10242
lowerback -2.10346 -0.302451 0.445924
upperback 2.56208 -0.484688 1.81949
thorax 3.82875 -0.256904 1.59842
lowerneck -13.8211 0.258996 -2.16703
upperneck 29.3537 0.704386 0.795995
head 11.8929 0.172246 0.770349
rclavicle -3.27995e-015 -1.78906e-015
rhumerus -29.9796 -18.5453 -76.1954
rradius 24.3962
rwrist 31.3574
rhand -19.4146 -26.5255
rfingers 7.12502
rthumb 6.90495 -56.3929
lclavicle -3.27995e-015 -1.78906e-015
lhumerus -26.557 2.2693 86.0727
lradius 17.8322
lwrist 4.82847
lhand -25.7325 -4.30525
lfingers 7.12502
lthumb 0.804127 25.673
rfemur -11.7189 -2.19764 20.3671
rtibia 20.3795
rfoot -13.4001 -2.35824
rtoes 10.0682
lfemur -11.04 5.86168 -17.3675
ltibia 19.5931
lfoot -11.5236 4.63437
ltoes -0.634819
174
root 0.535504 17.5425 -13.8338 5.48211 -1.32028 -2.09557
lowerback -2.09341 -0.298596 0.432445
upperback 2.57116 -0.47897 1.81794
thorax 3.83242 -0.25445 1.60475
lowerneck -13.8132 0.259125 -2.18518
upperneck 29.3101 0.705409 0.808515
head 11.8739 0.172714 0.777933
rclavicle -7.45443e-016 1.92821e-014
rhumerus -30.2372 -18.583 -76.0236
rradius 24.4309
rwrist 31.2894
rhand -19.3858 -26.6043
rfingers 7.12502
rthumb 6.93272 -56.4708
lclavicle -7.45443e-016 1.92821e-014
lhumerus -26.7723 2.22681 86.0266
lradius 17.8967
lwrist 5.07397
lhand -25.7203 -4.20541
lfingers 7.12502
lthumb 0.815841 25.7728
rfemur -11.7491 -2.19843 20.3638
rtibia 20.3831
rfoot -13.3936 -2.36612
rtoes 10.0093
lfemur -11.0654 5.86136 -17.3747
ltibia 19.5919
lfoot -11.5233 4.62966
ltoes -0.618029
175
root 0.534885 17.5427 -13.834 5.50288 -1.32062 -2.08791
lowerback -2.08275 -0.29555 0.419386
upperback 2.58224 -0.474355 1.81571
thorax 3.83784 -0.252534 1.61008
lowerneck -13.8046 0.259391 -2.20283
upperneck 29.2606 0.707488 0.817652
head 11.8524 0.17333 0.784259
rclavicle 4.07509e-015 -2.18663e-014
rhumerus -30.5065 -18.6224 -75.8429
rradius 24.4588
rwrist 31.2294
rhand -19.3707 -26.6376
rfingers 7.12502
rthumb 6.94729 -56.5036
lclavicle 4.07509e-015 -2.18663e-014
lhumerus -27.0006 2.20019 85.9728
lradius 17.9597
lwrist 5.31892
lhand -25.717 -4.12327
lfingers 7.12502
lthumb 0.819063 25.8549
rfemur -11.7772 -2.19602 20.3587
rtibia 20.3892
rfoot -13.3934 -2.372
rtoes 9.99557
lfemur -11.088 5.8602 -17.3825
ltibia 19.5891
lfoot -11.522 4.62628
ltoes -0.603527
176
root 0.534268 17.5428 -13.8342 5.52461 -1.32039 -2.08023
lowerback -2.07407 -0.294104 0.406902
upperback 2.59507 -0.471964 1.8135
thorax 3.84624 -0.251722 1.61499
lowerneck -13.7996 0.25926 -2.21909
upperneck 29.2097 0.710283 0.821548
head 11.8312 0.173761 0.78849
rclavicle -7.50412e-015 2.80286e-014
rhumerus -30.7869 -18.6694 -75.6502
rradius 24.4744
rwrist 31.1913
rhand -19.3734 -26.6211
rfingers 7.12502
rthumb 6.94467 -56.4872
lclavicle -7.50412e-015 2.80286e-014
lhumerus -27.24 2.19719 85.909
lradius 18.0146
lwrist 5.54849
lhand -25.7227 -4.07438
lfingers 7.12502
lthumb 0.813579 25.9038
rfemur -11.8068 -2.19076 20.3531
rtibia 20.399
rfoot -13.3994 -2.37774
rtoes 10.0076
lfemur -11.1114 5.85872 -17.3906
ltibia 19.5858
lfoot -11.5193 4.62291
ltoes -0.591717
177
root 0.533663 17.543 -13.8342 5.54615 -1.31832 -2.0713
lowerback -2.06662 -0.293869 0.39519
upperback 2.61119 -0.471249 1.80978
thorax 3.85878 -0.25172 1.61781
lowerneck -13.8028 0.257814 -2.22679
upperneck 29.1592 0.712328 0.814794
head 11.812 0.173439 0.787212
rclavicle -4.72114e-015 1.27222e-014
rhumerus -31.0752 -18.7292 -75.4476
rradius 24.4785
rwrist 31.1774
rhand -19.4 -26.5526
rfingers 7.12502
rthumb 6.91907 -56.4195
lclavicle -4.72114e-015 1.27222e-014
lhumerus -27.4855 2.20428 85.8378
lradius 18.0602
lwrist 5.7686
lhand -25.7476 -4.07127
lfingers 7.12502
lthumb 0.789527 25.907
rfemur -11.8364 -2.1852 20.3458
rtibia 20.4124
rfoot -13.4098 -2.38444
rtoes 10.0232
lfemur -11.1346 5.85641 -17.4001
ltibia 19.583
lfoot -11.5174 4.62028
ltoes -0.590327
178
root 0.533036 17.5431 -13.8343 5.56804 -1.31265 -2.06325
lowerback -2.05785 -0.295607 0.38588
upperback 2.62845 -0.473242 1.80543
thorax 3.87179 -0.252993 1.6185
lowerneck -13.8114 0.25665 -2.22571
upperneck 29.11 0.715274 0.799012
head 11.7945 0.173325 0.781219
rclavicle -4.42296e-015 1.53064e-014
rhumerus -31.3742 -18.7936 -75.2382
rradius 24.4784
rwrist 31.1791
rhand -19.4255 -26.4698
rfingers 7.12502
rthumb 6.89438 -56.3375
lclavicle -4.42296e-015 1.53064e-014
lhumerus -27.7398 2.23117 85.7555
lradius 18.0928
lwrist 5.95544
lhand -25.7849 -4.12883
lfingers 7.12502
lthumb 0.753531 25.8496
rfemur -11.867 -2.17992 20.3394
rtibia 20.4295
rfoot -13.4239 -2.39174
rtoes 10.0507
lfemur -11.1602 5.85342 -17.4087
ltibia 19.5829
lfoot -11.5178 4.61592
ltoes -0.594253
179
root 0.532412 17.5432 -13.8345 5.58993 -1.30416 -2.05494
lowerback -2.04917 -0.298245 0.378361
upperback 2.64722 -0.476488 1.7998
thorax 3.88642 -0.254828 1.61679
lowerneck -13.817 0.253974 -2.22155
upperneck 29.0579 0.715941 0.780455
head 11.7753 0.1722 0.773316
rclavicle 5.01931e-015 -2.22639e-014
rhumerus -31.6837 -18.8563 -75.026
rradius 24.4781
rwrist 31.1833
rhand -19.4509 -26.4005
rfingers 7.12502
rthumb 6.86994 -56.2691
lclavicle 5.01931e-015 -2.22639e-014
lhumerus -28.0005 2.27539 85.6623
lradius 18.1116
lwrist 6.10678
lhand -25.8066 -4.17825
lfingers 7.12502
lthumb 0.732562 25.8002
rfemur -11.8997 -2.17736 20.3332
rtibia 20.4505
rfoot -13.4397 -2.40066
rtoes 10.0656
lfemur -11.1886 5.85075 -17.4176
ltibia 19.5873
lfoot -11.521 4.60949
ltoes -0.593024
180
root 0.531771 17.543 -13.8347 5.61109 -1.2929 -2.04744
lowerback -2.03792 -0.301761 0.372578
upperback 2.66762 -0.480968 1.79425
thorax 3.90131 -0.257235 1.61414
lowerneck -13.8241 0.251076 -2.21472
upperneck 29.0062 0.716459 0.759038
head 11.7567 0.170936 0.763887
rclavicle -4.72114e-015 -1.78906e-014
rhumerus -31.9992 -18.9286 -74.8072
rradius 24.4778
rwrist 31.1968
rhand -19.4523 -26.3617
rfingers 7.12502
rthumb 6.86854 -56.2303
lclavicle -4.72114e-015 -1.78906e-014
lhumerus -28.2666 2.34085 85.5581
lradius 18.1209
lwrist 6.20913
lhand -25.8026 -4.18668
lfingers 7.12502
lthumb 0.73639 25.7918
rfemur -11.9346 -2.17767 20.3286
rtibia 20.4756
rfoot -13.4556 -2.41297
rtoes 10.0544
lfemur -11.2207 5.84867 -17.4254
ltibia 19.5989
lfoot -11.529 4.60035
ltoes -0.590568
181
root 0.531202 17.5427 -13.8351 5.63137 -1.27857 -2.03919
lowerback -2.02366 -0.306179 0.367521
upperback 2.68847 -0.486647 1.78879
thorax 3.91499 -0.260218 1.61111
lowerneck -13.82 0.249186 -2.21659
upperneck 28.947 0.717498 0.747284
head 11.7327 0.170256 0.759522
rclavicle 5.26779e-015 -3.1408e-014
rhumerus -32.3245 -19.0145 -74.5771
rradius 24.4784
rwrist 31.2243
rhand -19.4212 -26.3529
rfingers 7.12502
rthumb 6.89859 -56.2205
lclavicle 5.26779e-015 -3.1408e-014
lhumerus -28.5405 2.42037 85.4465
lradius 18.121
lwrist 6.26537
lhand -25.7863 -4.18267
lfingers 7.12502
lthumb 0.752182 25.7957
rfemur -11.971 -2.18305 20.3232
rtibia 20.5054
rfoot -13.473 -2.42297
rtoes 10.0508
lfemur -11.257 5.84687 -17.4341
ltibia 19.6192
lfoot -11.5417 4.5882
ltoes -0.584383
182
root 0.530706 17.5422 -13.8356 5.65011 -1.26232 -2.03228
lowerback -2.00528 -0.311334 0.363932
upperback 2.70953 -0.493365 1.78487
thorax 3.92658 -0.263698 1.60882
lowerneck -13.8119 0.246894 -2.22491
upperneck 28.8844 0.718673 0.738487
head 11.7066 0.169345 0.757352
rclavicle 8.15017e-015 -9.74045e-015
rhumerus -32.6609 -19.1134 -74.3319
rradius 24.475
rwrist 31.2625
rhand -19.3879 -26.3358
rfingers 7.12502
rthumb 6.93072 -56.2023
lclavicle 8.15017e-015 -9.74045e-015
lhumerus -28.8201 2.49551 85.3366
lradius 18.1083
lwrist 6.30391
lhand -25.763 -4.11875
lfingers 7.12502
lthumb 0.774634 25.8596
rfemur -12.0102 -2.1901 20.3195
rtibia 20.5411
rfoot -13.4899 -2.43706
rtoes 10.0211
lfemur -11.2979 5.84593 -17.4419
ltibia 19.6502
lfoot -11.5592 4.57532
ltoes -0.583988
183
root 0.530256 17.5414 -13.8362 5.66716 -1.2422 -2.02694
lowerback -1.98195 -0.317928 0.361774
upperback 2.73195 -0.502071 1.78262
thorax 3.93684 -0.268154 1.60735
lowerneck -13.8086 0.245145 -2.23369
upperneck 28.8229 0.721241 0.728482
head 11.6819 0.168852 0.755042
rclavicle 6.06293e-015 -3.77691e-015
rhumerus -33.0058 -19.2228 -74.074
rradius 24.469
rwrist 31.3081
rhand -19.3488 -26.3009
rfingers 7.12502
rthumb 6.96847 -56.1662
lclavicle 6.06293e-015 -3.77691e-015
lhumerus -29.108 2.5765 85.2256
lradius 18.0949
lwrist 6.31873
lhand -25.7511 -4.05254
lfingers 7.12502
lthumb 0.786184 25.9258
rfemur -12.051 -2.19856 20.3173
rtibia 20.5839
rfoot -13.5092 -2.4515
rtoes 10.0039
lfemur -11.3444 5.84483 -17.4479
ltibia 19.6924
lfoot -11.5804 4.56038
ltoes -0.59213
184
root 0.529855 17.5404 -13.8371 5.68487 -1.21649 -2.02383
lowerback -1.95592 -0.326634 0.362657
upperback 2.75505 -0.513738 1.78176
thorax 3.94633 -0.274018 1.60548
lowerneck -13.8078 0.244361 -2.24283
upperneck 28.7606 0.725779 0.717023
head 11.6574 0.169035 0.752541
rclavicle 7.45443e-016 4.57205e-015
rhumerus -33.3579 -19.3366 -73.8076
rradius 24.4585
rwrist 31.3557
rhand -19.3082 -26.2557
rfingers 7.12502
rthumb 7.00768 -56.1197
lclavicle 7.45443e-016 4.57205e-015
lhumerus -29.4032 2.65756 85.1143
lradius 18.0769
lwrist 6.31431
lhand -25.7378 -3.95342
lfingers 7.12502
lthumb 0.79903 26.0248
rfemur -12.0973 -2.20923 20.3176
rtibia 20.6349
rfoot -13.5306 -2.46929
rtoes 9.98005
lfemur -11.4002 5.84292 -17.4519
ltibia 19.7463
lfoot -11.6053 4.54167
ltoes -0.605508
185
root 0.529575 17.5392 -13.8383 5.70271 -1.18586 -2.02069
lowerback -1.92917 -0.336668 0.366021
upperback 2.78075 -0.527302 1.7807
thorax 3.95815 -0.280762 1.6019
lowerneck -13.8083 0.244624 -2.2484
upperneck 28.6944 0.731866 0.702255
head 11.6317 0.169932 0.748399
rclavicle 1.2424e-015 1.17283e-014
rhumerus -33.7118 -19.4654 -73.5334
rradius 24.4397
rwrist 31.4121
rhand -19.2787 -26.2176
rfingers 7.12502
rthumb 7.03614 -56.0806
lclavicle 1.2424e-015 1.17283e-014
lhumerus -29.705 2.73566 85.004
lradius 18.0631
lwrist 6.29658
lhand -25.7208 -3.81639
lfingers 7.12502
lthumb 0.815367 26.1618
rfemur -12.1493 -2.22492 20.3178
rtibia 20.6957
rfoot -13.5545 -2.48799
rtoes 9.94496
lfemur -11.4642 5.83951 -17.4565
ltibia 19.8124
lfoot -11.6336 4.52092
ltoes -0.623842
